<svg width="100%" height="100%" viewBox="0 0 500 500"  xmlns="http://www.w3.org/2000/svg">
    <g transform="matrix(2.08737,0,0,2.08737,-310.789,-543.686)">
        <path d="M219.965,489.635C178.095,470.991 148.89,428.995 148.89,380.232C148.89,314.13 202.556,260.464 268.658,260.464C334.76,260.464 388.426,314.13 388.426,380.232C388.426,428.665 359.615,470.422 318.192,489.255C319.891,479.119 321.744,465.758 321.859,455.422C322.218,422.996 316.059,391.265 311.727,358.996C311.196,355.039 307.137,322.98 305.985,307.619C305.576,302.165 307.561,301.279 307.381,301.077C304.786,298.177 301.89,294.628 299.992,295.726C299.002,296.299 297.994,297.709 296.853,300.259C296.193,301.735 300.834,303.771 300.578,308.318C299.387,329.439 300.573,387.481 300.573,394.345C300.573,403.708 297.607,426.506 296.853,426.085C292.986,423.925 292.058,396.791 291.781,392.456C289.879,362.702 290.395,344.036 285.531,314.015C284.22,305.924 284.087,289.437 282.577,277.664C281.93,272.618 285.715,270.79 285.018,270.261C282.175,268.106 279.977,265.325 278.931,264.741C278.496,264.498 274.142,270.663 274.535,271.542C274.96,272.491 276.798,275.275 277.151,276.591C278.2,280.501 278.13,291.65 277.854,295.05C275.478,324.246 280.284,355.629 280.284,384.899C280.284,388.778 281.206,411.829 279.269,413.994C279.044,414.246 275.427,401.462 275.211,400.013C273.631,389.42 269.442,371.237 274.873,362.227C276.524,359.488 271.766,359.159 270.139,354.292C269.68,352.918 267.793,358.309 266.739,359.28C264.285,361.541 267.434,363.642 267.434,365.25C267.434,375.448 266.225,385.247 265.743,395.479C265.55,399.578 262.457,416.039 262.362,415.505C256.411,382.256 260.856,348.046 258.642,312.351C258.044,302.707 260.282,288.661 258.98,279.099C258.48,275.426 263.34,273.943 260.963,271.344C257.687,267.761 254.491,261.323 254.922,262.852C255.544,265.055 253.054,268.284 250.259,270.267C248.69,271.381 252.186,275.614 253.57,276.832C257.512,280.304 253.482,291.974 252.893,297.236C251.565,309.107 248.925,320.775 248.159,332.755C246.947,351.724 247.263,370.832 246.13,389.811C245.887,393.884 243.241,425.157 242.072,426.463C241.668,426.914 238.862,403.499 238.862,395.126C238.862,368.907 238.963,340.928 235.648,314.995C235.361,312.754 235.617,306.885 237.308,301.955C238.995,297.038 234.972,299.334 232.266,293.458C231.414,291.608 229.119,296.826 228.546,298.748C227.799,301.252 230.136,303.962 230.237,306.305C230.679,316.512 228.304,327.942 226.305,337.295C219.326,369.943 218.614,395.61 216.156,424.179C213.978,449.498 217.224,474.468 219.965,489.635Z" style="fill:rgb(55,57,64);"/>
    </g>
    <g transform="matrix(0.869279,0,0,0.971342,28.6756,-10.6419)">
        <path d="M373.552,502.616C370.097,521.348 366.907,534.962 366.907,534.962L145.145,534.962C145.145,534.962 141.632,522.99 137.684,503.435C173.393,517.773 212.973,525.708 254.607,525.708C297.035,525.708 337.329,517.468 373.552,502.616Z" style="fill:none;"/>
    </g>
    <g transform="matrix(0.869279,0,0,0.971342,28.6756,-10.6419)">
        <path d="M137.684,503.435C131.101,470.84 123.306,417.181 128.537,362.773C134.439,301.377 136.148,246.222 152.906,176.062C157.707,155.962 163.409,131.4 162.348,109.465C162.105,104.431 156.495,98.606 158.288,93.225C159.665,89.096 165.175,77.882 167.22,81.857C173.717,94.486 183.378,89.55 179.328,100.117C175.266,110.713 174.652,123.324 175.34,128.141C183.301,183.868 183.059,243.995 183.059,300.338C183.059,318.331 189.798,368.65 190.768,367.679C193.574,364.873 199.929,297.669 200.512,288.916C203.231,248.131 202.472,207.069 205.384,166.305C207.223,140.562 213.563,115.488 216.752,89.977C218.166,78.668 227.842,53.59 218.376,46.13C215.053,43.511 206.659,34.414 210.427,32.022C217.139,27.76 223.118,20.821 221.624,16.086C220.588,12.801 228.262,26.636 236.13,34.336C241.837,39.92 230.167,43.108 231.368,51.002C234.494,71.549 229.119,101.733 230.556,122.457C235.874,199.165 225.198,272.681 239.488,344.132C239.717,345.278 247.144,309.906 247.608,301.096C248.765,279.109 251.668,258.05 251.668,236.136C251.668,232.681 244.106,228.165 250,223.306C252.531,221.22 257.06,209.635 258.164,212.588C262.071,223.047 273.497,223.753 269.532,229.64C256.49,249.002 266.55,288.077 270.344,310.84C270.862,313.953 279.546,341.425 280.088,340.884C284.739,336.232 282.524,286.697 282.524,278.36C282.524,215.461 270.985,148.019 276.688,85.279C277.352,77.972 277.52,54.015 275.002,45.612C274.154,42.782 269.739,36.801 268.72,34.762C267.775,32.873 278.232,19.624 279.276,20.146C281.788,21.402 287.066,27.377 293.891,32.008C295.566,33.144 286.477,37.074 288.031,47.917C291.656,73.217 291.977,108.648 295.124,126.033C306.803,190.549 305.564,230.66 310.131,294.6C310.797,303.916 313.026,362.225 322.311,366.867C324.122,367.773 331.243,318.78 331.243,298.66C331.243,283.909 328.397,159.179 331.256,113.79C331.871,104.019 320.725,99.645 322.311,96.473C325.052,90.992 327.471,87.964 329.848,86.733C334.407,84.372 341.36,91.999 347.592,98.231C348.025,98.664 343.258,100.569 344.24,112.29C347.005,145.3 356.752,214.192 358.028,222.697C368.43,292.04 383.22,360.23 382.356,429.912C382.081,452.123 377.632,480.834 373.552,502.616C337.329,517.468 297.035,525.708 254.607,525.708C212.973,525.708 173.393,517.773 137.684,503.435Z" style="fill:none;"/>
    </g>
</svg>
